<!-- icon666.com - MILLIONS vector ICONS FREE --><svg viewBox="0 -13 512.00063 512" xmlns="http://www.w3.org/2000/svg"><path d="m336.839844 377.257812c-7.4375-.003906-13.46875 6.023438-13.472656 13.460938v.015625 67.367187h-296.417969v-431.152343h296.417969v67.367187c-.074219 7.441406 5.898437 13.53125 13.339843 13.605469 7.441407.074219 13.53125-5.898437 13.605469-13.335937.003906-.089844.003906-.179688 0-.269532v-80.84375c.003906-7.4375-6.019531-13.46874975-13.457031-13.472656-.003907 0-.007813 0-.015625 0h-323.363282c-7.441406-.00390625-13.47265575 6.019531-13.476562 13.457031v.015625 458.109375c-.00390625 7.4375 6.023438 13.472657 13.460938 13.472657h.015624 323.363282c7.4375.007812 13.46875-6.019532 13.472656-13.453126 0-.007812 0-.011718 0-.019531v-80.847656c.003906-7.4375-6.019531-13.46875-13.457031-13.476563-.003907 0-.011719 0-.015625 0zm0 0"></path><path d="m508.761719 233.761719-80.84375-94.316407c-4.839844-5.652343-13.347657-6.3125-19-1.472656-5.652344 4.839844-6.3125 13.347656-1.472657 19l61.785157 72.078125h-294.074219c-7.441406 0-13.472656 6.03125-13.472656 13.472657 0 7.441406 6.03125 13.476562 13.472656 13.476562h294.085938l-61.789063 72.078125c-4.839844 5.652344-4.179687 14.160156 1.472656 19 5.652344 4.839844 14.160157 4.179687 19-1.472656l80.84375-94.316407c4.3125-5.046874 4.308594-12.484374-.007812-17.527343zm0 0"></path></svg>