<svg width="80" height="46" viewBox="0 0 80 46" fill="none" xmlns="http://www.w3.org/2000/svg">
<g clip-path="url(#clip0_3103_71)">
<path d="M70.3333 34.1171C70.0198 34.1171 69.7847 33.9669 69.6018 33.6163C69.445 33.3159 69.3405 32.8151 69.3405 32.2142V13.7361C69.3405 13.1352 69.4189 12.6344 69.6018 12.3339C69.7847 12.0335 70.0198 11.8833 70.3333 11.8833H72.0838C72.4757 11.8833 72.8154 11.9333 73.1028 11.9834C73.3901 12.0836 73.6514 12.2338 73.8343 12.5342C74.0433 12.8347 74.1739 13.2353 74.2785 13.8362C74.383 14.3871 74.4352 15.1883 74.4352 16.1397V29.8606C74.4352 31.1125 74.3568 32.0139 74.1739 32.6148C73.9911 33.2157 73.7298 33.6163 73.3901 33.8166C73.0505 34.0169 72.6063 34.1171 72.0838 34.067L70.3333 34.1171ZM64.7161 1.11687C64.4026 1.16695 64.1413 1.31718 63.9845 1.61764C63.8278 1.91809 63.7494 2.41886 63.7494 3.01977V42.9806C63.7494 43.5815 63.8278 44.0322 64.0107 44.3827C64.1674 44.6832 64.4287 44.8835 64.7422 44.8835H72.0054C73.5208 44.8835 74.8271 44.583 75.8722 43.9821C76.9173 43.3812 77.7533 42.4297 78.3803 41.2279C79.0074 40.0261 79.4777 38.4236 79.7389 36.5208C80.0263 34.6179 80.157 32.4145 80.157 29.8606V16.1397C80.157 13.5858 80.0263 11.3825 79.7389 9.4796C79.4515 7.5767 79.0074 6.02434 78.3803 4.82251C77.7533 3.57061 76.9173 2.66924 75.8722 2.06832C74.8271 1.46741 73.5469 1.16695 72.0054 1.16695L64.7161 1.11687ZM55.206 27.507C55.206 28.7089 55.1798 29.8105 55.1537 30.762C55.1014 31.7134 54.9969 32.5147 54.8402 33.2157C54.6834 33.9168 54.4222 34.4176 54.0564 34.7681C53.7167 35.1186 53.2465 35.3189 52.6455 35.3189C52.0446 35.3189 51.5743 35.1186 51.2347 34.7681C50.8689 34.4176 50.6338 33.9168 50.4509 33.2157C50.2941 32.5647 50.1896 31.7134 50.1374 30.762C50.0851 29.8105 50.059 28.7089 50.0851 27.507V18.4933C50.0851 17.2915 50.1112 16.1898 50.1374 15.2384C50.1896 14.2869 50.2941 13.4857 50.4509 12.7846C50.6077 12.0836 50.8689 11.5828 51.2347 11.2323C51.5743 10.8817 52.0446 10.6814 52.6455 10.6814C53.2465 10.6814 53.7167 10.8817 54.0564 11.2323C54.4222 11.5828 54.6573 12.0836 54.8402 12.7846C54.9969 13.4356 55.1014 14.2869 55.1537 15.2384C55.206 16.1898 55.206 17.2915 55.206 18.4933V27.507ZM60.7971 15.1883C60.7971 14.4872 60.7709 13.6359 60.7187 12.6344C60.6664 11.6329 60.5619 10.5813 60.379 9.42952C60.1962 8.27777 59.9349 7.1761 59.5952 6.07442C59.2295 4.97274 58.7592 3.97122 58.1583 3.06985C57.5574 2.16847 56.7997 1.41733 55.8853 0.866493C54.9708 0.315655 53.8735 0.065274 52.5933 0.0151978C51.3131 0.0151978 50.2158 0.315655 49.3013 0.866493C48.3869 1.41733 47.6292 2.16847 47.0283 3.06985C46.4274 3.97122 45.9571 4.97274 45.5913 6.07442C45.2256 7.1761 44.9643 8.32785 44.8075 9.42952C44.6246 10.5813 44.5201 11.6329 44.4679 12.6344C44.4156 13.6359 44.3895 14.4872 44.3895 15.1883V30.8121C44.3895 31.5131 44.4156 32.3644 44.4679 33.3659C44.5201 34.3675 44.6246 35.4191 44.8075 36.5708C44.9643 37.7226 45.2517 38.8243 45.5913 39.9259C45.9571 41.0276 46.4274 42.0291 47.0283 42.9806C47.6292 43.882 48.3869 44.6331 49.3013 45.1339C50.2158 45.6847 51.3131 45.9852 52.5933 45.9852C53.8735 45.9852 54.9708 45.6847 55.8853 45.1339C56.7997 44.583 57.5574 43.882 58.1583 42.9806C58.7592 42.0792 59.2295 41.0777 59.5952 39.9259C59.961 38.8243 60.2223 37.6725 60.379 36.5708C60.5358 35.4191 60.6664 34.3675 60.7187 33.3659C60.7709 32.3644 60.7971 31.5131 60.7971 30.8121V15.1883ZM36.2118 27.507C36.2118 28.7089 36.1857 29.8105 36.1596 30.762C36.1073 31.7134 36.0028 32.5147 35.8461 33.2157C35.6893 33.9168 35.428 34.4176 35.0623 34.7681C34.7226 35.1186 34.2523 35.3189 33.6514 35.3189C33.0505 35.3189 32.5802 35.1186 32.2406 34.7681C31.8748 34.4176 31.6397 33.9168 31.4568 33.2157C31.3 32.5647 31.1955 31.7134 31.1432 30.762C31.091 29.8105 31.0649 28.7089 31.091 27.507V18.4933C31.091 17.2915 31.1171 16.1898 31.1432 15.2384C31.1955 14.2869 31.3 13.4857 31.4568 12.7846C31.6135 12.0836 31.8748 11.5828 32.2406 11.2323C32.5802 10.8817 33.0505 10.6814 33.6514 10.6814C34.2523 10.6814 34.7226 10.8817 35.0623 11.2323C35.428 11.5828 35.6632 12.0836 35.8461 12.7846C36.0028 13.4356 36.1073 14.2869 36.1596 15.2384C36.2118 16.1898 36.2118 17.2915 36.2118 18.4933V27.507ZM41.8291 15.1883C41.8291 14.4872 41.803 13.6359 41.7507 12.6344C41.6984 11.6329 41.5939 10.5813 41.411 9.42952C41.2282 8.27777 40.9669 7.1761 40.6272 6.07442C40.2615 4.97274 39.7912 3.97122 39.1903 3.06985C38.5894 2.16847 37.8317 1.41733 36.9173 0.866493C36.0028 0.315655 34.9055 0.065274 33.6253 0.0151978C32.3451 0.0151978 31.2478 0.315655 30.3333 0.866493C29.4189 1.41733 28.6612 2.16847 28.0603 3.06985C27.4594 3.97122 26.9891 4.97274 26.6233 6.07442C26.2576 7.1761 25.9963 8.32785 25.8395 9.42952C25.6566 10.5813 25.5521 11.6329 25.4999 12.6344C25.4476 13.6359 25.4215 14.4872 25.4215 15.1883V30.8121C25.4215 31.5131 25.4476 32.3644 25.4999 33.3659C25.5521 34.3675 25.6566 35.4191 25.8395 36.5708C25.9963 37.7226 26.2837 38.8243 26.6233 39.9259C26.9891 41.0276 27.4594 42.0291 28.0603 42.9806C28.6612 43.882 29.4189 44.6331 30.3333 45.1339C31.2478 45.6847 32.3451 45.9852 33.6253 45.9852C34.9055 45.9852 36.0028 45.6847 36.9173 45.1339C37.8317 44.583 38.5894 43.882 39.1903 42.9806C39.7912 42.0792 40.2615 41.0777 40.6272 39.9259C40.993 38.8243 41.2543 37.6725 41.411 36.5708C41.5678 35.4191 41.6984 34.3675 41.7507 33.3659C41.803 32.3644 41.8291 31.5131 41.8291 30.8121V15.1883ZM22.5476 1.11687C23.2007 1.11687 23.5142 1.76786 23.5142 2.96969V9.98036C23.5142 10.5813 23.4359 11.032 23.2791 11.3825C23.1223 11.733 22.8611 11.8833 22.5476 11.8833H14.0303C13.7167 11.8833 13.4816 12.0335 13.2987 12.3339C13.1158 12.6344 13.0374 13.1352 13.0374 13.7361V43.0307C13.0374 43.6316 12.9591 44.0823 12.8023 44.4328C12.6455 44.7332 12.3843 44.9336 12.0707 44.9336H8.23012C7.9166 44.9336 7.68146 44.7833 7.49857 44.4328C7.34181 44.0823 7.2373 43.6316 7.2373 43.0307V3.01977C7.2373 2.41886 7.31568 1.91809 7.49857 1.61764C7.68146 1.31718 7.9166 1.16695 8.23012 1.16695L22.5476 1.11687Z" fill="#B59571"/>
<path d="M15.2843 24.9031C12.8546 24.5025 0.993032 28.2081 0.104724 24.202C-1.3845 17.5419 11.0779 21.2976 12.7501 21.3977C13.5861 21.4478 14.6312 21.7483 15.2321 21.4478C15.6501 21.1974 15.9375 19.8954 16.4078 19.3947C17.4529 18.1929 19.1511 18.8438 20.6142 19.0942C21.607 19.2445 22.5737 19.4448 23.6188 19.595C22.1295 19.9956 20.5358 20.3962 18.9682 20.7968C18.7853 20.8469 18.4979 20.6967 18.3673 21.0973C19.961 21.598 21.7638 21.6982 23.4881 21.9486C21.7899 22.4493 19.8826 22.5495 18.2105 23.1504C18.315 23.5009 18.6286 23.4008 18.8114 23.4509C20.3007 23.6512 21.9467 23.9015 23.5143 24.0518C21.8944 24.5525 20.0133 24.6527 18.3934 25.2536C18.4457 25.7544 18.7853 25.6041 18.9421 25.6041C20.4313 25.9547 22.1034 26.3553 23.6449 26.6057C21.9467 26.856 19.8565 27.6072 18.106 27.8075C16.7474 27.9577 15.9375 26.4554 15.2843 24.9031Z" fill="#B59571"/>
<path d="M11.0779 25.3036C12.959 25.0032 14.5528 24.7528 15.2843 24.853C15.6239 25.6542 15.9636 26.4053 16.4339 26.9562C16.878 27.507 17.4006 27.8575 18.0799 27.7574C19.0465 27.6572 20.1177 27.3568 21.1628 27.1064C21.9205 26.9061 22.652 26.7058 23.3313 26.6056C22.652 26.5055 21.9727 26.3552 21.2673 26.205C20.4574 26.0548 19.6736 25.8545 18.942 25.6542H18.8114C18.6285 25.6542 18.3934 25.6542 18.3673 25.2536V25.2035H18.3934C19.2817 24.853 20.2745 24.6527 21.2673 24.5024C21.9466 24.4023 22.6259 24.252 23.2529 24.1018C22.0772 23.9516 20.8493 23.8014 19.6997 23.6511C19.4123 23.6011 19.1249 23.551 18.8375 23.551H18.7069C18.524 23.551 18.315 23.551 18.2105 23.2505L18.1844 23.2004H18.2105C19.1511 22.8499 20.17 22.6496 21.1889 22.4994C21.8682 22.3992 22.5737 22.249 23.2268 22.0988C22.8872 22.0487 22.5214 21.9986 22.1818 21.9485C20.8754 21.7983 19.543 21.6481 18.3673 21.2975H18.315L18.3411 21.2475C18.4456 20.947 18.6285 20.947 18.7853 20.947H18.942L20.1961 20.6466C21.2412 20.3962 22.3124 20.0957 23.3052 19.8453C22.7043 19.7452 22.1034 19.645 21.5286 19.5449C21.2151 19.4948 20.9277 19.4447 20.588 19.3947L19.8042 19.2444C18.5501 18.994 17.2438 18.6936 16.4077 19.6951C16.1987 19.9455 16.0158 20.3461 15.8591 20.7467C15.6501 21.1974 15.4672 21.6481 15.232 21.7983C14.814 21.9986 14.187 21.9485 13.5599 21.8484C13.2725 21.7983 12.9851 21.7482 12.7239 21.7482C12.4365 21.7482 11.8356 21.598 11.0518 21.4478C8.23009 20.5965 2.92637 19.5449 0.862355 21.2475C0.130807 21.8484 -0.182713 22.7498 0.130807 24.202C0.731722 26.9562 6.68861 26.0047 11.0779 25.3036ZM15.2843 24.9531C14.5528 24.853 12.959 25.1033 11.0779 25.4038C6.68861 26.1049 0.705595 27.0563 0.0785537 24.202C-0.261094 22.6997 0.0785537 21.7482 0.836228 21.0972C2.92637 19.3946 8.23009 20.4463 11.0779 20.9971C11.8617 21.1473 12.4626 21.2975 12.75 21.2975C13.0113 21.2975 13.2987 21.3476 13.5861 21.3977C14.2131 21.4979 14.814 21.5479 15.232 21.3476C15.4411 21.2475 15.6239 20.7968 15.833 20.3461C16.0158 19.9455 16.1726 19.5449 16.4077 19.2945C17.2699 18.293 18.5763 18.5934 19.8565 18.8438L20.6403 18.994C20.9277 19.0441 21.2673 19.0942 21.5808 19.1443C22.2601 19.2444 22.9394 19.3946 23.6448 19.4447L23.9322 19.4948L23.671 19.595C22.5998 19.8954 21.4502 20.1959 20.3006 20.4963L19.0465 20.7968H18.8898C18.7592 20.7968 18.6024 20.7968 18.4979 20.9971C19.6736 21.3476 20.9799 21.4979 22.2863 21.6481C22.7304 21.6982 23.1484 21.7482 23.5926 21.7983L23.8539 21.8484L23.5926 21.8985C22.861 22.0988 22.0772 22.249 21.2934 22.3992C20.3006 22.5995 19.2817 22.7498 18.3673 23.1003C18.4456 23.3006 18.6285 23.3006 18.7853 23.3006H18.9159C19.2033 23.3507 19.4907 23.4007 19.7781 23.4007C21.0322 23.6011 22.3385 23.7513 23.5926 23.9015L23.8539 23.9516L23.5926 24.0517C22.861 24.252 22.1034 24.4023 21.3457 24.5525C20.379 24.7528 19.4123 24.903 18.524 25.2536C18.5763 25.554 18.7592 25.5039 18.9159 25.5039H19.0465C19.8042 25.6542 20.588 25.8545 21.3718 26.0548C22.1556 26.205 22.9656 26.4053 23.7232 26.5055V26.6056C22.9656 26.7058 22.1034 26.9562 21.2412 27.1565C20.1961 27.4068 19.1249 27.7073 18.1582 27.8075C17.4789 27.9076 16.9303 27.5571 16.4861 27.0062C15.9636 26.5055 15.5978 25.7543 15.2843 24.9531Z" fill="#B59571"/>
</g>
<defs>
<clipPath id="clip0_3103_71">
<rect width="80" height="46" fill="white"/>
</clipPath>
</defs>
</svg>
